<svg id="visual" viewBox="0 0 900 450" width="900" height="450" xmlns="http://www.w3.org/2000/svg" xmlns:xlink="http://www.w3.org/1999/xlink" version="1.1"><rect x="0" y="0" width="900" height="450" fill="#1d1d1f"></rect><defs><linearGradient id="grad1_0" x1="50%" y1="100%" x2="100%" y2="0%"><stop offset="10%" stop-color="#1d1d1f" stop-opacity="1"></stop><stop offset="90%" stop-color="#1d1d1f" stop-opacity="1"></stop></linearGradient></defs><defs><linearGradient id="grad2_0" x1="0%" y1="100%" x2="50%" y2="0%"><stop offset="10%" stop-color="#1d1d1f" stop-opacity="1"></stop><stop offset="90%" stop-color="#1d1d1f" stop-opacity="1"></stop></linearGradient></defs><g transform="translate(900, 450)"><path d="M-157 0C-156.7 -30.2 -156.3 -60.4 -142.9 -82.5C-129.5 -104.6 -103 -118.5 -77 -133.4C-51 -148.3 -25.5 -164.1 0 -180L0 0Z" fill="#4f46e5"></path></g><g transform="translate(0, 0)"><path d="M170 0C153.2 21.5 136.4 43.1 125.6 72.5C114.8 101.9 109.9 139.2 90 155.9C70.1 172.6 35 168.8 0 165L0 0Z" fill="#4f46e5"></path></g></svg>