<svg id="visual" viewBox="0 0 900 450" width="900" height="450" xmlns="http://www.w3.org/2000/svg" xmlns:xlink="http://www.w3.org/1999/xlink" version="1.1"><rect x="0" y="0" width="900" height="450" fill="#1d1d1f"></rect><defs><linearGradient id="grad1_0" x1="50%" y1="100%" x2="100%" y2="0%"><stop offset="10%" stop-color="#1d1d1f" stop-opacity="1"></stop><stop offset="90%" stop-color="#1d1d1f" stop-opacity="1"></stop></linearGradient></defs><defs><linearGradient id="grad2_0" x1="0%" y1="100%" x2="50%" y2="0%"><stop offset="10%" stop-color="#1d1d1f" stop-opacity="1"></stop><stop offset="90%" stop-color="#1d1d1f" stop-opacity="1"></stop></linearGradient></defs><g transform="translate(900, 450)"><path d="M-180 0C-159.5 -24.7 -139.1 -49.4 -122.1 -70.5C-105.2 -91.6 -91.8 -109.1 -72 -124.7C-52.2 -140.4 -26.1 -154.2 0 -168L0 0Z" fill="#4B2D7A"></path></g><g transform="translate(0, 0)"><path d="M150 0C158.2 31 166.4 61.9 155.9 90C145.4 118.1 116.1 143.2 87 150.7C57.9 158.2 28.9 148.1 0 138L0 0Z" fill="#4B2D7A"></path></g></svg>