<svg xmlns="http://www.w3.org/2000/svg" width="256" height="256" viewBox="0 0 100 100"><rect width="100" height="100" rx="20" fill="#18181b"></rect><path fill="#fff" d="M76.65 40.11L60.68 40.11Q60.31 38.61 59.52 37.46Q58.72 36.31 57.54 35.50Q56.36 34.69 54.82 34.28Q53.27 33.86 51.42 33.86L51.42 33.86Q47.44 33.86 44.64 35.77Q41.85 37.67 40.38 41.25Q38.92 44.83 38.92 49.89L38.92 49.89Q38.92 55 40.31 58.64Q41.70 62.27 44.46 64.20Q47.22 66.14 51.31 66.14L51.31 66.14Q54.91 66.14 57.32 65.09Q59.72 64.03 60.91 62.10Q62.10 60.17 62.10 57.56L62.10 57.56L64.83 57.84L51.53 57.84L51.53 46.59L77.33 46.59L77.33 54.66Q77.33 62.61 73.96 68.25Q70.60 73.89 64.70 76.89Q58.81 79.89 51.19 79.89L51.19 79.89Q42.70 79.89 36.28 76.28Q29.86 72.67 26.26 65.99Q22.67 59.32 22.67 50.11L22.67 50.11Q22.67 42.90 24.87 37.33Q27.07 31.76 30.99 27.91Q34.91 24.06 40.06 22.09Q45.20 20.11 51.08 20.11L51.08 20.11Q56.25 20.11 60.70 21.58Q65.14 23.04 68.57 25.72Q71.99 28.41 74.09 32.07Q76.19 35.74 76.65 40.11L76.65 40.11Z"></path></svg>